<?xml version="1.0" encoding="utf-8"?>
<!-- Generator: Adobe Illustrator 23.0.2, SVG Export Plug-In . SVG Version: 6.00 Build 0)  -->
<svg version="1.1" id="Слой_1" xmlns="http://www.w3.org/2000/svg" xmlns:xlink="http://www.w3.org/1999/xlink" x="0px" y="0px"
	 viewBox="0 0 243.8 64" style="enable-background:new 0 0 243.8 64;" xml:space="preserve">
<style type="text/css">
	.st0{fill:#FFFFFF;}
</style>
<g>
	<g>
		<path class="st0" d="M82.7,11.9l-20,51.7c-0.2,0.6-1.2,0.6-1.5,0L37.1,1c-0.2-0.5,0.1-1,0.7-1h10.9c0.4,0,0.7,0.2,0.8,0.5L62,35.4
			L70.4,12h12.3V11.9z"/>
	</g>
	<g>
		<path class="st0" d="M174,0.7v62.6c0,0.3-0.3,0.7-0.9,0.7h-10.5c-0.5,0-0.9-0.4-0.9-0.7V52h-24.2v11.3c0,0.3-0.3,0.7-0.9,0.7
			h-10.5c-0.5,0-0.9-0.4-0.9-0.7V40l36.5,0.1v-2.2V26V0.7c0-0.3,0.4-0.7,0.9-0.7h10.5C173.6,0,174,0.4,174,0.7z M125.2,27.8v-27
			c0-0.3,0.4-0.7,0.9-0.7h10.5c0.6,0,0.9,0.4,0.9,0.7V26v1.8H125.2z"/>
	</g>
</g>
<g>
	<path class="st0" d="M80.7,52.2H69.3L65.1,63c-0.2,0.6,0.1,1,0.7,1H77l4.2-10.8C81.4,52.7,81.1,52.2,80.7,52.2z"/>
</g>
<g>
	<path class="st0" d="M122.4,52.2h-19.2l4.3-12.2H94.4l-4.9,12.2L85.2,63c-0.2,0.6,0.1,1,0.9,1h8.8h8.3h19.2c0.6,0,1-0.4,1-0.7V52.9
		C123.3,52.5,123,52.2,122.4,52.2z"/>
</g>
<g>
	<path class="st0" d="M99.3,27.8h13.1L123.2,1c0.2-0.6-0.2-1-0.9-1H85.9C85.4,0,85,0.4,85,0.7v10.4c0,0.4,0.4,0.8,0.9,0.8h19.8
		L99.3,27.8z"/>
</g>
<g>
	<path class="st0" d="M33.9,25.7L5.3,38.4l28.7,12.7v4.3L0,40.3v-3.8l33.9-15.1V25.7z"/>
</g>
<g>
	<path class="st0" d="M185.5,60.9l-4.1-1.6l19.6-49.9l4.1,1.6L185.5,60.9z"/>
	<path class="st0" d="M209.9,51.1l28.7-12.7l-28.7-12.7v-4.3l33.9,15.1v3.8l-33.9,15.1V51.1z"/>
</g>
</svg>
